<?xml version="1.0" encoding="utf-8"?>
<!-- Svg Vector Icons : http://www.onlinewebfonts.com/icon -->
<!DOCTYPE svg PUBLIC "-//W3C//DTD SVG 1.1//EN" "http://www.w3.org/Graphics/SVG/1.1/DTD/svg11.dtd">
<svg version="1.1" xmlns="http://www.w3.org/2000/svg" xmlns:xlink="http://www.w3.org/1999/xlink" x="0px" y="0px" viewBox="0 0 1000 1000" enable-background="new 0 0 1000 1000" xml:space="preserve">
<metadata> Svg Vector Icons : http://www.onlinewebfonts.com/icon </metadata>
<g><path d="M234,760.5c0-44.6-36.2-80.8-80.8-80.8c-44.6,0-80.8,36.2-80.8,80.8c0,44.6,36.2,80.8,80.8,80.8C197.8,841.3,234,805.1,234,760.5z M153.2,804.8c-24.4,0-44.3-19.9-44.3-44.3c0-24.4,19.9-44.3,44.3-44.3c24.4,0,44.3,19.9,44.3,44.3C197.5,784.9,177.6,804.8,153.2,804.8z"/><path d="M791,768c-11.4,0-46.2,0-46.2-55.7V545.1H708V319.9V213.2v-54.5h-68.7h-11.8h-10.7v35.6l10.7,4.4v102.3l11.4,5.5v298.2h-29.4l-34-39.8c-15-46.4-62-189.3-91.6-251.1c-38.1-79.6-110.5-82.3-113.9-82.3H165.2v10.5v18v10.1h16l-15.4,205.2H71.5l-1.6,3.3c-0.8,1.5-2.9,4.5-5.3,7.9c-8.7,12.5-25.8,37-38.6,74.9h41.8v25h-49c-2.3,9.7-4.3,20.1-5.8,31.2h42.3v25H10.6c-0.4,6.9-0.6,13.9-0.6,21.2c0,81.7,19.4,106.9,20.3,108l1.8,2.2h21.7c-0.6-4.3-0.9-8.8-0.9-13.3c0-55.3,45-100.4,100.4-100.4c55.3,0,100.4,45,100.4,100.4c0,4.5-0.3,8.9-0.9,13.3h212.8v21h42.9c-5.7-13.2-8.8-27.7-8.8-42.9c0-59.8,48.7-108.4,108.4-108.4c59.8,0,108.4,48.6,108.4,108.4c0,20.3-5.6,39.4-15.4,55.6v2h288l1.1-30.8C983.9,778.2,839.6,768,791,768z M649.8,196.2l37.3,14.8v12.8L649.8,209V196.2z M649.8,228.6l37.3,14.8v12.8l-37.3-14.8V228.6z M649.8,261l37.3,14.8v12.8l-37.3-14.8V261z M473.9,690.2l-88.8,0l-194.5-102l2-27.1l21.8-291.2h155.2c3.9,0.2,58.9,3.6,88.8,64.2c19.1,38.7,46.6,113.7,67,172.3l-48.6-56.9L456.6,463L444,444.7l-19.5,13.5l12.4,18L418,488.7l80.6,138.1h-98l-10.8-68.4c-2.4-15.1-15.1-43.7-46.1-43.7h-43.6c-0.8-11.7-2.6-31.1-7-46.7l-0.5-1.8c-6-21.6-10-35.8-34.6-35.8c-10.3,0-16.7-0.1-16.8-0.1c-2.9,0-5.8,1.1-7.9,3.2c-2.1,2.1-3.2,5-3,8l7.1,143.3l153.8,80.6l95.1,0C481.4,673,477.2,681.4,473.9,690.2z"/><path d="M461.6,418.8l-11.9-17.7l-65.8,44.4l11.9,17.7L461.6,418.8z"/><path d="M697.4,751.8c0-49.4-40.1-89.5-89.5-89.5c-49.4,0-89.5,40.1-89.5,89.5c0,49.4,40.1,89.5,89.5,89.5C657.3,841.3,697.4,801.2,697.4,751.8z M607.9,798.6c-25.8,0-46.8-21-46.8-46.8c0-25.8,21-46.8,46.8-46.8c25.8,0,46.8,21,46.8,46.8C654.7,777.6,633.7,798.6,607.9,798.6z"/></g>
</svg>