<?xml version="1.0" standalone="no"?>
<!DOCTYPE svg PUBLIC "-//W3C//DTD SVG 20010904//EN"
 "http://www.w3.org/TR/2001/REC-SVG-20010904/DTD/svg10.dtd">
<svg version="1.0" xmlns="http://www.w3.org/2000/svg"
 width="1024.000000pt" height="1024.000000pt" viewBox="0 0 1024.000000 1024.000000"
 preserveAspectRatio="xMidYMid meet">

<g transform="translate(0.000000,1024.000000) scale(0.100000,-0.100000)"
fill="#ffff" stroke="none">
<path d="M1195 6943 c-243 -21 -463 -75 -641 -158 -302 -140 -491 -346 -541
-588 -56 -273 106 -544 442 -741 155 -90 371 -161 584 -190 142 -20 422 -20
560 -1 505 72 893 321 1012 650 32 87 33 253 2 350 -62 196 -238 377 -489 503
-254 128 -640 200 -929 175z m65 -97 c0 -3 -26 -29 -58 -60 -98 -93 -165 -233
-191 -397 -6 -35 -14 -66 -18 -70 -15 -15 -144 20 -227 60 -87 43 -192 130
-240 200 l-29 41 23 25 c32 34 170 100 270 128 92 27 236 53 358 66 104 11
112 12 112 7z m340 -21 c137 -23 257 -62 385 -125 66 -33 129 -66 139 -74 18
-15 18 -16 1 -43 -87 -133 -271 -242 -434 -259 l-61 -7 0 35 c0 60 -38 189
-81 277 -32 64 -59 102 -112 154 l-70 69 74 -6 c41 -4 112 -13 159 -21z m-219
-188 c64 -43 115 -161 121 -282 3 -48 2 -50 -27 -56 -41 -9 -261 -10 -310 -1
l-40 8 3 44 c5 69 40 191 68 233 49 75 122 96 185 54z m-983 -229 c93 -127
286 -231 505 -273 44 -8 83 -17 85 -20 3 -3 9 -53 14 -112 17 -229 62 -393
149 -544 27 -48 49 -91 49 -96 0 -11 -111 0 -223 23 -177 36 -335 99 -474 189
-209 136 -330 312 -349 505 -12 114 49 292 132 389 l38 44 15 -24 c9 -13 35
-49 59 -81z m2037 -93 c67 -121 82 -238 45 -357 -66 -214 -307 -409 -640 -519
-166 -54 -410 -98 -410 -73 0 3 9 19 20 35 46 64 120 238 144 339 14 57 31
165 37 240 6 74 14 138 17 141 4 3 45 11 92 18 237 35 427 139 526 288 l38 57
49 -55 c26 -30 64 -81 82 -114z m-919 -297 c-19 -270 -102 -417 -220 -392
-103 21 -163 150 -181 389 l-7 90 207 0 208 0 -7 -87z"/>
<path d="M4401 6695 c-101 -18 -190 -65 -270 -141 -121 -113 -171 -247 -171
-453 0 -138 16 -215 66 -313 99 -196 307 -298 578 -285 183 9 310 60 416 168
105 106 153 243 152 429 0 195 -44 318 -156 437 -132 142 -368 203 -615 158z
m324 -217 c66 -35 118 -90 152 -163 27 -57 28 -67 28 -205 0 -128 -3 -152 -23
-201 -30 -76 -90 -142 -160 -176 -51 -25 -68 -28 -157 -28 -86 0 -107 4 -150
25 -66 32 -131 99 -160 163 -70 155 -48 394 45 500 78 88 155 119 290 114 68
-3 95 -9 135 -29z"/>
<path d="M6950 6696 c-139 -30 -218 -73 -302 -164 -97 -107 -148 -254 -148
-432 0 -182 47 -313 152 -426 107 -114 264 -174 458 -174 257 0 451 108 542
300 51 107 63 167 63 310 0 141 -22 231 -77 329 -62 109 -189 204 -328 246
-76 23 -276 29 -360 11z m266 -201 c109 -32 187 -110 220 -220 24 -80 28 -199
10 -284 -28 -134 -78 -205 -179 -258 -47 -25 -62 -28 -152 -28 -87 0 -107 3
-156 26 -145 68 -207 198 -197 410 6 122 30 194 84 258 80 93 240 135 370 96z"/>
<path d="M2870 6596 c0 -93 0 -94 27 -101 14 -3 99 -5 187 -4 l161 2 3 -487 2
-486 125 0 125 0 0 485 0 485 183 2 182 3 3 98 3 97 -501 0 -500 0 0 -94z"/>
<path d="M5480 6348 l230 -342 0 -243 0 -243 125 0 125 0 0 248 0 247 85 123
c46 67 150 219 230 337 l147 216 -149 -3 -148 -3 -131 -213 c-72 -117 -137
-219 -145 -227 -12 -11 -35 19 -159 216 l-145 229 -148 0 -148 0 231 -342z"/>
<path d="M7832 6594 l3 -95 180 -2 180 -2 5 -485 c3 -267 7 -486 8 -487 1 -2
56 -3 122 -3 l120 0 2 486 3 486 171 -1 c93 -1 178 1 187 5 14 5 17 21 17 100
l0 94 -500 0 -501 0 3 -96z"/>
<path d="M9210 6648 c-20 -46 -459 -1094 -467 -1115 -4 -10 25 -13 129 -13
l135 0 48 129 48 129 221 7 c317 10 279 25 345 -132 l55 -133 133 0 c73 0 133
3 133 7 0 5 -111 268 -247 585 l-248 578 -133 0 -133 0 -19 -42z m239 -456
c45 -111 81 -204 81 -207 0 -3 -77 -5 -171 -5 -159 0 -171 1 -165 18 61 167
161 411 167 405 4 -5 44 -99 88 -211z"/>
<path d="M2025 4910 c-165 -26 -293 -87 -395 -190 -171 -171 -249 -425 -221
-726 19 -205 68 -336 175 -465 88 -106 218 -185 371 -225 99 -26 333 -26 430
0 257 68 438 240 513 486 67 220 47 552 -46 736 -90 178 -248 309 -442 364
-86 25 -287 35 -385 20z m300 -291 c154 -50 245 -179 276 -389 23 -158 0 -331
-61 -456 -119 -244 -471 -294 -666 -96 -99 100 -138 220 -138 422 1 200 38
322 130 420 109 117 288 155 459 99z"/>
<path d="M120 4100 l0 -790 160 0 160 0 0 335 0 335 330 0 330 0 0 135 0 135
-330 0 -330 0 0 185 0 185 379 0 378 0 7 71 c4 39 4 100 1 135 l-7 64 -539 0
-539 0 0 -790z"/>
<path d="M3190 4101 l0 -791 160 0 160 0 0 331 0 332 98 -5 c186 -9 210 -31
505 -480 l116 -178 191 0 c150 0 190 3 184 13 -4 6 -73 117 -153 245 -160 256
-210 319 -308 389 l-65 46 74 21 c193 56 303 175 331 356 26 173 -58 363 -197
445 -92 54 -133 58 -633 62 l-463 4 0 -790z m844 506 c130 -38 167 -218 67
-318 -55 -55 -93 -62 -356 -63 l-230 -1 -3 197 -2 197 27 5 c51 8 457 -5 497
-17z"/>
<path d="M4797 4883 c-4 -3 -7 -359 -7 -790 l0 -783 160 0 160 0 0 237 0 237
123 126 c67 69 127 126 133 128 6 2 107 -162 225 -362 l214 -366 207 0 207 0
-98 153 c-53 83 -165 256 -247 382 -251 384 -276 424 -272 434 1 6 113 124
248 263 135 139 265 274 289 301 l44 47 -215 0 -215 0 -239 -262 c-283 -311
-386 -422 -396 -426 -5 -2 -8 152 -8 342 l0 346 -153 0 c-85 0 -157 -3 -160
-7z"/>
<path d="M7740 4100 l0 -790 160 0 160 0 0 335 0 335 330 0 330 0 0 135 0 135
-330 0 -330 0 0 185 0 185 383 2 382 3 3 133 3 132 -546 0 -545 0 0 -790z"/>
<path d="M8982 4758 l3 -133 233 -3 232 -2 0 -655 0 -655 160 0 160 0 0 655 0
655 233 2 232 3 3 133 3 132 -631 0 -631 0 3 -132z"/>
<path d="M6400 4095 l0 -785 555 0 556 0 -3 133 -3 132 -392 3 -393 2 0 650 0
650 -160 0 -160 0 0 -785z"/>
<path d="M7230 4765 l0 -106 113 3 112 3 3 103 3 102 -116 0 -115 0 0 -105z"/>
<path d="M7230 4105 l0 -435 115 0 115 0 0 435 0 435 -115 0 -115 0 0 -435z"/>
</g>
</svg>
